<?xml version="1.0" encoding="UTF-8" standalone="no"?>
<svg
   width="776.50061"
   height="217.42035"
   viewBox="0 0 776.50061 217.42035"
   fill="none"
   version="1.1"
   id="svg13"
   sodipodi:docname="feegow.svg"
   inkscape:version="1.3 (0e150ed6c4, 2023-07-21)"
   xmlns:inkscape="http://www.inkscape.org/namespaces/inkscape"
   xmlns:sodipodi="http://sodipodi.sourceforge.net/DTD/sodipodi-0.dtd"
   xmlns="http://www.w3.org/2000/svg"
   xmlns:svg="http://www.w3.org/2000/svg">
  <sodipodi:namedview
     id="namedview13"
     pagecolor="#ffffff"
     bordercolor="#cccccc"
     borderopacity="1"
     inkscape:showpageshadow="0"
     inkscape:pageopacity="1"
     inkscape:pagecheckerboard="0"
     inkscape:deskcolor="#d1d1d1"
     inkscape:zoom="0.94752309"
     inkscape:cx="451.70403"
     inkscape:cy="175.72131"
     inkscape:window-width="1842"
     inkscape:window-height="1051"
     inkscape:window-x="1989"
     inkscape:window-y="-9"
     inkscape:window-maximized="1"
     inkscape:current-layer="svg13" />
  <g
     clip-path="url(#clip0_2837_109)"
     id="g9"
     transform="scale(7.7650124)">
    <path
       d="M 40.0911,6.65174 39.9393,7.51642 C 39.8947,7.76119 39.8084,7.95808 39.612,7.87028 39.0884,7.69202 38.4783,7.55899 38.0647,7.55899 c -1.1991,0 -1.6992,0.5534 -1.6992,2.21359 v 1.68412 h 2.6155 c 0.2173,0 0.3273,0.1118 0.3273,0.3326 v 0.9977 c 0,0.2209 -0.11,0.3326 -0.3273,0.3326 h -2.6155 v 9.0113 c 0,0.2208 -0.1099,0.3326 -0.3272,0.3326 h -1.2855 c -0.2173,0 -0.3273,-0.1118 -0.3273,-0.3326 v -9.0113 h -1.1336 c -0.2173,0 -0.3273,-0.1117 -0.3273,-0.3326 v -0.8407 l 1.4609,-0.3751 V 9.42404 c 0,-2.17101 1.0682,-3.56515 3.1391,-3.56515 0.6964,0 1.3955,0.15431 2.2228,0.46559 0.1519,0.06386 0.3482,0.15166 0.3037,0.32726 z"
       fill="#052b3b"
       id="path1" />
    <path
       d="m 48.6892,16.1738 c -0.131,-2.1258 -0.8928,-3.1874 -3.0737,-3.1874 -1.8301,0 -2.8328,0.9073 -3.0056,3.1874 z m 1.9374,0 v 0.0213 c 0,0.9312 -0.3482,1.5058 -1.4819,1.5058 l -6.5374,0.0453 c 0.1728,2.4583 1.5682,3.2565 3.6601,3.2113 1.3509,-0.0453 2.5265,-0.7077 3.202,-1.2399 0.1754,-0.133 0.3272,0 0.4581,0.2209 l 0.4582,0.7981 c 0.0864,0.1783 -0.0209,0.3113 -0.1964,0.4204 -0.6964,0.5534 -2.1128,1.5272 -4.3146,1.5272 -2.3956,0 -5.2729,-1.3516 -5.2729,-5.7123 0,-3.8312 2.0055,-5.7361 5.0765,-5.7361 3.9481,0 4.9483,2.9904 4.9483,4.938 z"
       fill="#052b3b"
       id="path2" />
    <path
       d="m 59.9917,16.1738 c -0.131,-2.1258 -0.8928,-3.1874 -3.0737,-3.1874 -1.8301,0 -2.8328,0.9073 -3.0056,3.1874 z m 1.9374,0 v 0.0213 c 0,0.9312 -0.3483,1.5058 -1.4819,1.5058 l -6.5374,0.0453 c 0.1728,2.4583 1.5682,3.2565 3.6601,3.2113 1.3509,-0.0453 2.5265,-0.7077 3.2019,-1.2399 0.1755,-0.133 0.3273,0 0.4582,0.2209 l 0.4582,0.7981 c 0.0864,0.1783 -0.021,0.3113 -0.1964,0.4204 -0.6964,0.5534 -2.1128,1.5272 -4.3146,1.5272 -2.3956,0 -5.2729,-1.3516 -5.2729,-5.7123 0,-3.8312 2.0055,-5.7361 5.0765,-5.7361 3.9455,0 4.9483,2.9904 4.9483,4.938 z"
       fill="#052b3b"
       id="path3" />
    <path
       d="m 71.1392,19.0765 v -6.0023 c -0.9163,-0.0665 -1.8091,-0.0878 -2.55,-0.0878 -2.1364,0 -3.3983,1.1973 -3.3983,3.9855 0,1.5937 0.3482,3.9643 2.7228,3.9643 1.2227,0 2.4846,-1.0855 3.2255,-1.8597 z m 1.9401,-7.2873 v 9.2135 c 0,5.2706 -1.5264,6.9973 -5.7075,6.9973 -1.1546,0 -2.3746,-0.3113 -3.0501,-0.5321 -0.1519,-0.0453 -0.3482,-0.1544 -0.3063,-0.3326 l 0.1518,-0.886 c 0.0445,-0.2421 0.1309,-0.4203 0.3273,-0.3538 0.6309,0.1782 1.7646,0.4416 2.6364,0.4416 3.0737,0 4.0083,-1.0855 4.0083,-4.6719 v -0.8195 c -0.6754,0.753 -1.94,1.8385 -3.5946,1.8385 -3.4638,0 -4.3356,-3.2113 -4.3356,-5.7123 0,-3.6529 2.1573,-5.7361 5.4038,-5.7361 1.0682,0 2.7883,0.0878 4.1392,0.2208 0.1964,0.0239 0.3273,0.1117 0.3273,0.3326 z"
       fill="#052b3b"
       id="path4" />
    <path
       d="m 83.0753,16.9719 c 0,-2.9 -1.3065,-3.9855 -3.3565,-3.9855 -2.0709,0 -3.3773,1.0855 -3.3773,3.9855 0,2.8575 1.3064,3.9856 3.3773,3.9856 2.0474,0 3.3565,-1.1281 3.3565,-3.9856 z m -8.7184,0 c 0,-4.1637 2.2438,-5.7361 5.3593,-5.7361 3.0946,0 5.3384,1.7054 5.3384,5.7361 0,3.6982 -2.2438,5.7123 -5.3384,5.7123 -3.1129,0 -5.3593,-2.0141 -5.3593,-5.7123 z"
       fill="#052b3b"
       id="path5" />
    <path
       d="m 99.9778,11.6616 -3.6732,10.7141 c -0.0681,0.1836 -0.1807,0.274 -0.3823,0.274 h -1.3745 c -0.2016,0 -0.3168,-0.0904 -0.3822,-0.274 l -1.8013,-5.3344 -1.8013,5.3344 c -0.068,0.1836 -0.1806,0.274 -0.3822,0.274 h -1.3745 c -0.2016,0 -0.3168,-0.0904 -0.3823,-0.274 L 84.7508,11.6616 c -0.0681,-0.2288 0.0236,-0.3884 0.2697,-0.3884 h 1.4871 c 0.2042,0 0.3377,0.0931 0.3822,0.274 l 2.681,8.7 1.8693,-5.8372 -0.9242,-2.7484 c -0.0681,-0.2288 0.0236,-0.3884 0.2697,-0.3884 h 1.33 c 0.2016,0 0.3377,0.0931 0.3822,0.274 l 2.6574,8.6522 2.681,-8.6522 c 0.0445,-0.1836 0.1806,-0.274 0.3822,-0.274 h 1.4871 c 0.2513,-0.0027 0.3405,0.1596 0.2723,0.3884 z"
       fill="#052b3b"
       id="path6" />
    <mask
       id="mask0_2837_109"
       maskUnits="userSpaceOnUse"
       x="0"
       y="0"
       width="29"
       height="28">
      <path
         d="M 28.1656,0 H 0 v 28 h 28.1656 z"
         fill="url(#paint0_linear_2837_109)"
         id="path7" />
    </mask>
    <g
       mask="url(#mask0_2837_109)"
       id="g8">
      <path
         d="m 26.5136,10.7624 c 0.5865,0 1.063,-0.4843 1.063,-1.08023 V 5.92545 c 0,-3.28047 -2.626,-5.9490096 -5.8541,-5.9490096 H 5.85672 c -3.22814,0 -5.85410333,2.6685396 -5.85410333,5.9490096 V 13.987 c 0,0.5959 0.47649633,1.0801 1.06295333,1.0801 H 8.3701 l 2.6391,6.3801 c 0.178,0.4336 0.6021,0.697 1.0551,0.6598 0.4555,-0.0319 0.8378,-0.3565 0.953,-0.8062 l 2.8092,-10.9934 1.6939,4.0973 c 0.165,0.4017 0.5498,0.6598 0.9792,0.6598 h 6.9485 v 6.9813 c 0,2.0885 -1.673,3.7886 -3.7282,3.7886 H 5.8541 c -2.05522,0 -3.72819,-1.7001 -3.72819,-3.7886 V 18.305 c 0,-0.5959 -0.4765,-1.0801 -1.06296,-1.0801 C 0.476496,17.2249 0,17.7091 0,18.305 v 3.7408 c 0,3.2805 2.62597,5.949 5.8541,5.949 h 15.8658 c 3.2281,0 5.8541,-2.6685 5.8541,-5.949 v -8.0615 c 0,-0.596 -0.4765,-1.0802 -1.063,-1.0802 H 19.2065 L 16.5674,6.52408 C 16.392,6.10105 15.9705,5.835 15.5123,5.86426 15.0568,5.89885 14.6745,6.22078 14.5593,6.67041 L 11.7501,17.6612 10.0562,13.5639 C 9.89123,13.1622 9.50637,12.9014 9.077,12.9014 H 2.12852 V 5.92013 c 0,-2.08854 1.67298,-3.78863 3.7282,-3.78863 H 21.7225 c 2.0552,0 3.7282,1.70009 3.7282,3.78863 v 3.75671 c 0,0.60126 0.4765,1.08556 1.0629,1.08556 z"
         fill="url(#paint1_linear_2837_109)"
         id="path8"
         style="fill:url(#paint1_linear_2837_109)" />
    </g>
  </g>
  <defs
     id="defs13">
    <linearGradient
       id="paint0_linear_2837_109"
       x1="27.429001"
       y1="0.69548899"
       x2="0.31761801"
       y2="26.7409"
       gradientUnits="userSpaceOnUse">
      <stop
         stop-color="#00A2E7"
         id="stop9" />
      <stop
         offset="0.484375"
         stop-color="#00C4AA"
         id="stop10" />
      <stop
         offset="1"
         stop-color="#00E176"
         id="stop11" />
    </linearGradient>
    <linearGradient
       id="paint1_linear_2837_109"
       x1="26.022499"
       y1="1.55562"
       x2="2.3761799"
       y2="25.130899"
       gradientUnits="userSpaceOnUse">
      <stop
         stop-color="#01A6E0"
         id="stop12" />
      <stop
         offset="1"
         stop-color="#01DD7D"
         id="stop13" />
    </linearGradient>
    <clipPath
       id="clip0_2837_109">
      <rect
         width="100"
         height="28"
         fill="#ffffff"
         id="rect13"
         x="0"
         y="0" />
    </clipPath>
  </defs>
</svg>
