<?xml version="1.0" encoding="UTF-8" standalone="no"?>
<svg
   width="91.534401"
   height="20.9"
   viewBox="0 0 91.534401 20.9"
   fill="none"
   version="1.1"
   id="svg8"
   sodipodi:docname="jameda.svg"
   inkscape:version="1.3 (0e150ed6c4, 2023-07-21)"
   xmlns:inkscape="http://www.inkscape.org/namespaces/inkscape"
   xmlns:sodipodi="http://sodipodi.sourceforge.net/DTD/sodipodi-0.dtd"
   xmlns="http://www.w3.org/2000/svg"
   xmlns:svg="http://www.w3.org/2000/svg">
  <sodipodi:namedview
     id="namedview8"
     pagecolor="#ffffff"
     bordercolor="#cccccc"
     borderopacity="1"
     inkscape:showpageshadow="0"
     inkscape:pageopacity="1"
     inkscape:pagecheckerboard="0"
     inkscape:deskcolor="#d1d1d1"
     inkscape:zoom="5.7445652"
     inkscape:cx="28.809839"
     inkscape:cy="9.8353832"
     inkscape:window-width="1827"
     inkscape:window-height="1051"
     inkscape:window-x="84"
     inkscape:window-y="-9"
     inkscape:window-maximized="1"
     inkscape:current-layer="g8" />
  <g
     clip-path="url(#clip0_2797_127)"
     id="g8">
    <path
       d="m 31.1412,4.37704 c 0.7486,0 1.3534,-0.60718 1.3534,-1.35335 0,-0.74861 -0.6072,-1.35334 -1.3534,-1.35334 -0.7486,0 -1.3533,0.60717 -1.3533,1.35334 0,0.7486 0.6072,1.35335 1.3533,1.35335 z"
       fill="#00C3A5"
       id="path1"
       style="fill:#00b39b;fill-opacity:1" />
    <path
       d="m 29.8927,5.53848 v 9.63602 c 0,1.7898 -0.4755,2.3702 -1.3777,2.3726 -0.239,0 -0.5169,-0.0219 -0.712,-0.0658 l -0.1951,1.9166 c 0.278,0.0634 0.7803,0.1073 1.0827,0.1073 2.9749,0 3.6211,-2.0483 3.6211,-4.8915 V 5.53848 Z"
       fill="#00C3A5"
       id="path2"
       style="fill:#00b39b;fill-opacity:1" />
    <path
       fill-rule="evenodd"
       clip-rule="evenodd"
       d="m 76.377,5.53286 c -3.0383,0 -4.6111,2.30678 -4.6111,5.55964 v 0.0707 c 0,3.4919 1.6801,5.4524 4.1576,5.4524 1.3143,0 2.3726,-0.5218 3.1358,-1.3582 h 0.022 l 0.2267,1.0461 h 1.9679 V 1.67279 l -2.4044,0.3135 V 6.29122 C 78.2693,5.82791 77.3329,5.53286 76.377,5.53286 Z m 0.3024,8.98574 c -1.8094,0 -2.4141,-1.5289 -2.4141,-3.4041 0,-1.85324 0.6243,-3.42605 2.5433,-3.42605 0.8267,0 1.5679,0.29018 2.0629,0.73154 v 5.13541 c -0.5364,0.5462 -1.3435,0.9632 -2.1921,0.9632 z"
       fill="#00C3A5"
       id="path3"
       style="fill:#00b39b;fill-opacity:1" />
    <path
       fill-rule="evenodd"
       clip-rule="evenodd"
       d="m 61.1123,11.0632 v 0.0439 c 0,3.7943 1.7996,5.5085 5.2256,5.5061 1.1778,0 2.1044,-0.1024 3.1944,-0.2731 V 14.343 c -0.9706,0.1268 -2.0167,0.2316 -3.131,0.2316 -1.7606,0 -2.6189,-0.8778 -2.7896,-2.3507 h 6.6228 c 0.0415,-0.3925 0.0683,-0.9241 0.0683,-1.3094 0,-3.64305 -1.3923,-5.37923 -4.3916,-5.37923 -3.2359,0 -4.7989,2.31409 -4.7989,5.52793 z m 2.4628,-0.6144 h 4.3063 c 0,-1.63625 -0.4267,-2.92619 -2.0361,-2.92619 -1.6703,0 -2.2263,1.37772 -2.2702,2.92619 z"
       fill="#00C3A5"
       id="path4"
       style="fill:#00b39b;fill-opacity:1" />
    <path
       fill-rule="evenodd"
       clip-rule="evenodd"
       d="m 35.2281,5.64988 c 1.0339,-0.08779 2.158,-0.11218 3.2431,-0.11218 2.5555,0 4.0796,0.98758 4.0844,3.78449 v 6.98371 h -2.1434 l -0.1073,-1.0461 h -0.0268 c -0.7339,0.7901 -1.802,1.2534 -3.17,1.2534 -1.8117,0 -3.2504,-1.1729 -3.2504,-3.4967 0,-2.1605 1.802,-4.17469 6.3131,-3.21637 V 9.17101 c 0,-1.24605 -0.7315,-1.59475 -2.1702,-1.59475 -0.8852,0 -1.6338,0.05852 -2.7725,0.15605 z m 4.9403,5.80112 c -1.9118,-0.4877 -3.8235,0.1097 -3.8235,1.5874 0,0.9803 0.6511,1.5557 1.6216,1.5143 0.7632,-0.0342 1.6045,-0.3731 2.2019,-0.9023 z"
       fill="#00C3A5"
       id="path5"
       style="fill:#00b39b;fill-opacity:1" />
    <path
       fill-rule="evenodd"
       clip-rule="evenodd"
       d="M 84.2069,5.64988 C 85.2408,5.56209 86.3649,5.5377 87.45,5.5377 c 2.5555,0 4.082,0.98758 4.0844,3.78449 V 16.3059 H 89.391 l -0.1072,-1.0461 h -0.0269 c -0.7339,0.7901 -1.802,1.2534 -3.17,1.2534 -1.8117,0 -3.2504,-1.1729 -3.2504,-3.4967 0,-2.1605 1.802,-4.17469 6.3131,-3.21637 V 9.17101 c 0,-1.24605 -0.7315,-1.59475 -2.1702,-1.59475 -0.8851,0 -1.6337,0.05852 -2.7725,0.15605 z m 4.9403,5.80112 c -1.9117,-0.4877 -3.8235,0.1097 -3.8235,1.5874 0,0.9803 0.6511,1.5557 1.6216,1.5143 0.7632,-0.0342 1.6045,-0.3731 2.2019,-0.9023 z"
       fill="#00C3A5"
       id="path6"
       style="fill:#00b39b;fill-opacity:1" />
    <path
       d="M 52.8581,7.23731 C 52.3753,6.11074 51.4121,5.5377 49.8637,5.5377 c -1.4948,0 -2.5092,0.8242 -3.0847,1.72399 H 46.7498 C 46.7083,6.88861 46.6108,5.84983 46.6108,5.84983 H 44.5356 V 16.3011 h 2.3849 v -5.4963 c 0,-1.66306 0.9997,-2.98714 2.2019,-3.07736 1.2412,-0.09266 1.7313,0.57548 1.7313,2.27506 v 6.2986 h 2.3848 v -5.4963 c 0,-1.78742 0.9998,-3.00177 2.2019,-3.07736 1.2363,-0.07803 1.7313,0.57548 1.7313,2.27506 v 6.2986 h 2.3848 V 9.51239 c 0,-2.62134 -0.9973,-3.97469 -3.3748,-3.97469 -1.4411,0 -2.6286,0.76812 -3.3236,1.69961 z"
       fill="#00C3A5"
       id="path7"
       style="fill:#00b39b;fill-opacity:1" />
    <path
       fill-rule="evenodd"
       clip-rule="evenodd"
       d="M 1.31677,5.47677 8.2493,7.11054 8.84672,0 h 4.25018 l 0.5389,6.43021 C 11.1974,7.2666 9.76114,7.93473 8.11762,8.94425 6.90327,9.68798 5.80109,10.5585 4.81351,11.5583 L 0,9.52705 Z M 7.21783,20.8927 C 10.0513,15.1135 15.4647,10.8316 21.951,9.55387 L 20.6318,5.49384 C 12.7629,6.38144 6.06688,11.1511 2.48479,17.8495 Z m 4.95737,-4.0015 3.448,4.0088 3.4382,-2.497 -3.3553,-5.5523 c -1.5167,0.9315 -3.0017,2.7457 -3.5309,4.0405 z"
       fill="#00C3A5"
       id="path8"
       style="fill:#00b39b;fill-opacity:1" />
  </g>
  <defs
     id="defs8">
    <clipPath
       id="clip0_2797_127">
      <rect
         width="91.542"
         height="20.9"
         fill="#ffffff"
         id="rect8"
         x="0"
         y="0" />
    </clipPath>
  </defs>
</svg>
